<svg width="26" height="26" viewBox="0 0 26 26" fill="none" xmlns="http://www.w3.org/2000/svg">
<path d="M14.8978 5.08432C14.8978 4.17985 14.2368 3.41116 13.3425 3.27571C13.1155 3.24133 12.8846 3.24133 12.6576 3.27571C11.7634 3.41116 11.1023 4.17985 11.1023 5.08433V6.36339C10.5914 6.50922 10.1047 6.71245 9.64959 6.96568L8.74477 6.06086C8.10521 5.4213 7.09425 5.34517 6.36613 5.88174C6.18131 6.01793 6.01806 6.18118 5.88187 6.366C5.34529 7.09413 5.42142 8.1051 6.06099 8.74466L6.9658 9.64947C6.71258 10.1046 6.50934 10.5913 6.36352 11.1022H5.08446C4.17998 11.1022 3.41129 11.7632 3.27584 12.6575C3.24146 12.8845 3.24146 13.1154 3.27584 13.3424C3.41129 14.2366 4.17998 14.8977 5.08445 14.8977H6.36351C6.50934 15.4086 6.71257 15.8953 6.9658 16.3504L6.06099 17.2552C5.42143 17.8948 5.3453 18.9057 5.88187 19.6339C6.01807 19.8187 6.18132 19.9819 6.36613 20.1181C7.09426 20.6547 8.10522 20.5786 8.74478 19.939L9.64959 19.0342C10.1047 19.2874 10.5914 19.4907 11.1023 19.6365L11.1023 20.9155C11.1023 21.82 11.7634 22.5887 12.6576 22.7241C12.8846 22.7585 13.1155 22.7585 13.3425 22.7241C14.2368 22.5887 14.8978 21.82 14.8978 20.9155V19.6365C15.4087 19.4907 15.8954 19.2874 16.3505 19.0342L17.2553 19.939C17.8949 20.5786 18.9059 20.6547 19.634 20.1181C19.8188 19.9819 19.9821 19.8187 20.1182 19.6339C20.6548 18.9057 20.5787 17.8948 19.9391 17.2552L19.0343 16.3504C19.2875 15.8953 19.4908 15.4086 19.6366 14.8977H20.9157C21.8201 14.8977 22.5888 14.2366 22.7243 13.3424C22.7587 13.1154 22.7587 12.8845 22.7243 12.6575C22.5888 11.7632 21.8201 11.1022 20.9157 11.1022L19.6366 11.1022C19.4908 10.5913 19.2875 10.1045 19.0343 9.64946L19.9391 8.74464C20.5787 8.10508 20.6548 7.09412 20.1183 6.366C19.9821 6.18118 19.8188 6.01793 19.634 5.88174C18.9059 5.34517 17.8949 5.42129 17.2553 6.06086L16.3505 6.96567C15.8954 6.71245 15.4087 6.50921 14.8978 6.36338V5.08432Z" stroke="#222628" stroke-width="1.57242" stroke-linecap="round" stroke-linejoin="round"/>
<path d="M10.2918 13.0001C10.2918 11.5043 11.5044 10.2917 13.0002 10.2917C14.4959 10.2917 15.7085 11.5043 15.7085 13.0001C15.7085 14.4958 14.4959 15.7084 13.0002 15.7084C11.5044 15.7084 10.2918 14.4958 10.2918 13.0001Z" stroke="#222628" stroke-width="1.57242"/>
</svg>
