<svg width="16" height="17" viewBox="0 0 16 17" fill="none" xmlns="http://www.w3.org/2000/svg">
<path fill-rule="evenodd" clip-rule="evenodd" d="M2.16667 4.8252C2.16667 3.44448 3.28596 2.3252 4.66667 2.3252H11.3333C12.7141 2.3252 13.8333 3.44448 13.8333 4.8252V5.49186C13.8333 6.13619 13.311 6.65853 12.6667 6.65853H3.33334C2.68901 6.65853 2.16667 6.13619 2.16667 5.49186V4.8252ZM4.66667 3.3252C3.83824 3.3252 3.16667 3.99677 3.16667 4.8252V5.49186C3.16667 5.58391 3.24129 5.65853 3.33334 5.65853H12.6667C12.7587 5.65853 12.8333 5.58391 12.8333 5.49186V4.8252C12.8333 3.99677 12.1618 3.3252 11.3333 3.3252H4.66667Z" fill="#141416"/>
<path d="M2.66667 8.82536C2.66667 8.45717 2.96515 8.15869 3.33334 8.15869H12.6667C13.0349 8.15869 13.3333 8.45717 13.3333 8.82536V12.1587C13.3333 13.2633 12.4379 14.1587 11.3333 14.1587H4.66667C3.5621 14.1587 2.66667 13.2633 2.66667 12.1587V8.82536Z" fill="#141416"/>
<path fill-rule="evenodd" clip-rule="evenodd" d="M2.16667 8.82536C2.16667 8.18103 2.68901 7.65869 3.33334 7.65869H12.6667C13.311 7.65869 13.8333 8.18103 13.8333 8.82536V12.1587C13.8333 13.5394 12.7141 14.6587 11.3333 14.6587H4.66667C3.28596 14.6587 2.16667 13.5394 2.16667 12.1587V8.82536ZM3.33334 8.65869C3.24129 8.65869 3.16667 8.73331 3.16667 8.82536V12.1587C3.16667 12.9871 3.83824 13.6587 4.66667 13.6587H11.3333C12.1618 13.6587 12.8333 12.9871 12.8333 12.1587V8.82536C12.8333 8.73331 12.7587 8.65869 12.6667 8.65869H3.33334Z" fill="#141416"/>
</svg>
