<svg width="16" height="17" viewBox="0 0 16 17" fill="none" xmlns="http://www.w3.org/2000/svg">
<path fill-rule="evenodd" clip-rule="evenodd" d="M4 4.65869C3.90795 4.65869 3.83333 4.73331 3.83333 4.82536V13.119C3.83333 13.2405 3.95914 13.3211 4.06955 13.2704L7.51316 11.6892C7.82221 11.5473 8.17779 11.5473 8.48684 11.6892L11.9305 13.2704C12.0409 13.3211 12.1667 13.2405 12.1667 13.119V4.82536C12.1667 4.73331 12.092 4.65869 12 4.65869H4ZM2.83333 4.82536C2.83333 4.18103 3.35567 3.65869 4 3.65869H12C12.6443 3.65869 13.1667 4.18103 13.1667 4.82536V13.119C13.1667 13.9694 12.286 14.5341 11.5132 14.1792L8.06955 12.598C8.0254 12.5777 7.9746 12.5777 7.93045 12.598L4.48684 14.1792C3.71399 14.5341 2.83333 13.9694 2.83333 13.119V4.82536Z" fill="#141416"/>
<path fill-rule="evenodd" clip-rule="evenodd" d="M5 2.65869C4.90795 2.65869 4.83333 2.73331 4.83333 2.82536V4.15869H3.83333V2.82536C3.83333 2.18103 4.35567 1.65869 5 1.65869H11C11.6443 1.65869 12.1667 2.18103 12.1667 2.82536V4.15869H11.1667V2.82536C11.1667 2.73331 11.092 2.65869 11 2.65869H5Z" fill="#141416"/>
</svg>
