<svg width="16" height="16" viewBox="0 0 16 16" fill="none" xmlns="http://www.w3.org/2000/svg">
<path fill-rule="evenodd" clip-rule="evenodd" d="M5.99999 3.1665C4.98747 3.1665 4.16666 3.98732 4.16666 4.99984C4.16666 6.01236 4.98747 6.83317 5.99999 6.83317C7.01251 6.83317 7.83332 6.01236 7.83332 4.99984C7.83332 3.98732 7.01251 3.1665 5.99999 3.1665ZM3.16666 4.99984C3.16666 3.43503 4.43518 2.1665 5.99999 2.1665C7.5648 2.1665 8.83332 3.43503 8.83332 4.99984C8.83332 6.56464 7.5648 7.83317 5.99999 7.83317C4.43518 7.83317 3.16666 6.56464 3.16666 4.99984Z" fill="#141416"/>
<path fill-rule="evenodd" clip-rule="evenodd" d="M9.83334 2.6665C9.83334 2.39036 10.0572 2.1665 10.3333 2.1665C11.7141 2.1665 12.8333 3.28579 12.8333 4.6665C12.8333 6.04722 11.7141 7.1665 10.3333 7.1665C10.0572 7.1665 9.83334 6.94265 9.83334 6.6665C9.83334 6.39036 10.0572 6.1665 10.3333 6.1665C11.1618 6.1665 11.8333 5.49493 11.8333 4.6665C11.8333 3.83808 11.1618 3.1665 10.3333 3.1665C10.0572 3.1665 9.83334 2.94265 9.83334 2.6665Z" fill="#141416"/>
<path fill-rule="evenodd" clip-rule="evenodd" d="M0.5 12.9232C0.5 10.6645 2.33104 8.8335 4.58974 8.8335H7.41026C9.66896 8.8335 11.5 10.6645 11.5 12.9232C11.5 13.7942 10.794 14.5002 9.92308 14.5002H2.07692C1.20601 14.5002 0.5 13.7942 0.5 12.9232ZM4.58974 9.8335C2.88333 9.8335 1.5 11.2168 1.5 12.9232C1.5 13.2419 1.7583 13.5002 2.07692 13.5002H9.92308C10.2417 13.5002 10.5 13.2419 10.5 12.9232C10.5 11.2168 9.11667 9.8335 7.41026 9.8335H4.58974Z" fill="#141416"/>
<path fill-rule="evenodd" clip-rule="evenodd" d="M10.5 8.6665C10.5 8.39036 10.7239 8.1665 11 8.1665H11.9231C13.8986 8.1665 15.5 9.76795 15.5 11.7434C15.5 12.5294 14.8629 13.1665 14.0769 13.1665H13.1818C12.9057 13.1665 12.6818 12.9426 12.6818 12.6665C12.6818 12.3904 12.9057 12.1665 13.1818 12.1665H14.0769C14.3106 12.1665 14.5 11.9771 14.5 11.7434C14.5 10.3202 13.3463 9.1665 11.9231 9.1665H11C10.7239 9.1665 10.5 8.94265 10.5 8.6665Z" fill="#141416"/>
</svg>
