<svg width="16" height="16" viewBox="0 0 16 16" fill="none" xmlns="http://www.w3.org/2000/svg">
<path fill-rule="evenodd" clip-rule="evenodd" d="M11.0201 7.02022C10.8248 7.21548 10.5082 7.21548 10.313 7.02022L7.99984 4.70711L5.68672 7.02022C5.49146 7.21548 5.17488 7.21548 4.97962 7.02022C4.78435 6.82496 4.78435 6.50838 4.97962 6.31311L7.64628 3.64645C7.84155 3.45118 8.15813 3.45118 8.35339 3.64645L11.0201 6.31311C11.2153 6.50838 11.2153 6.82496 11.0201 7.02022Z" fill="white"/>
<path fill-rule="evenodd" clip-rule="evenodd" d="M8 3.5C8.27614 3.5 8.5 3.72386 8.5 4L8.5 12C8.5 12.2761 8.27614 12.5 8 12.5C7.72386 12.5 7.5 12.2761 7.5 12L7.5 4C7.5 3.72386 7.72386 3.5 8 3.5Z" fill="white"/>
</svg>
